<?xml version="1.0" encoding="utf-8"?>
<!-- Generator: Adobe Illustrator 16.0.0, SVG Export Plug-In . SVG Version: 6.00 Build 0)  -->
<!DOCTYPE svg PUBLIC "-//W3C//DTD SVG 1.1//EN" "http://www.w3.org/Graphics/SVG/1.1/DTD/svg11.dtd">
<svg version="1.1" id="IMG_x5F_0001_xA0_Image_1_" xmlns="http://www.w3.org/2000/svg" xmlns:xlink="http://www.w3.org/1999/xlink"
	 x="0px" y="0px" width="1020.364px" height="773.446px" viewBox="0 0 1020.364 773.446"
	 enable-background="new 0 0 1020.364 773.446" xml:space="preserve">
<g>
	<g id="XMLID_1_">
		<g>
			<path fill="#f8f7c9" d="M1018.02,422.081c0.891,4.862,1.336,10.281,0.148,14.957c-3.712,14.809-11.506,27.093-26.165,33.291
				c-13.361,5.716-27.242,9.612-41.938,10.763c-11.84,0.892-23.567,0.223-35.37-0.223c-8.685-0.334-17.369-1.521-26.054-1.744
				c-7.942-0.223-16.033-0.705-23.716,1.707c-8.165,2.599-16.293,5.456-23.418,10.504c-3.972,2.783-7.868,5.752-11.58,8.87
				c-5.752,4.861-9.909,11.282-13.063,17.777c-2.858,5.938-5.345,12.544-4.974,19.596c0.148,2.115,0.742,4.417-1.15,6.347
				c-0.371,0.334,0.037,1.67,0.297,2.449c2.078,5.753,5.159,11.023,9.649,15.143c5.976,5.456,12.434,10.354,18.408,15.848
				c3.229,2.969,5.827,6.606,8.647,9.983c4.677,5.604,6.681,12.025,6.198,19.299c-0.186,2.636,0.148,5.345,0.186,8.017
				c0.186,14.883-6.235,26.277-18.037,35.11c-11.022,8.276-22.862,8.388-34.924,3.748c-6.755-2.635-12.396-7.163-16.182-13.807
				c-2.041-3.6-3.601-7.385-5.271-11.134c-3.229-7.2-7.831-13.51-13.583-19.039c-8.054-7.757-17.221-13.955-26.797-19.634
				c-3.043-1.818-6.197-3.451-9.278-5.121c-0.668-0.334-1.373-0.668-2.078-0.816c-4.269-0.742-8.276-1.893-12.284-4.046
				c-4.825-2.561-8.686,1.336-7.534,6.792c0.223,1.002,0.779,1.93,1.076,2.932c1.336,4.38,2.969,8.685,3.859,13.139
				c1.67,8.499-4.305,14.475-12.989,13.398c-5.122-0.631-8.907-3.749-12.582-7.015c-1.521-1.41-2.969-2.933-4.676-4.083
				c-1.226-0.816-2.821-1.076-4.714-1.744c0.037,6.013,1.67,10.726,5.196,14.438c7.868,8.276,10.429,18.557,12.136,29.282
				c0.742,4.862,0.111,9.612-0.742,14.438c-1.336,7.312-5.308,13.139-10.206,18.371c-9.835,10.541-22.528,13.584-36.298,12.805
				c-3.859-0.223-7.607-2.264-11.356-3.601c-3.748-1.373-7.423-2.895-11.134-4.379c-14.475-5.827-27.242-14.178-38.005-25.497
				c-4.824-5.011-9.724-9.983-14.475-15.031c-1.447-1.521-2.746-3.154-3.785-4.937c-6.866-11.616-16.664-20.375-27.612-27.835
				c-7.2-4.899-15.588-6.94-24.273-7.423c-0.705-0.037-1.484,0.26-2.115,0.594c-5.233,2.933-9.501,6.718-10.206,13.027
				c-0.26,2.301-0.075,4.936,0.928,6.94c2.189,4.342,1.707,8.907,2.227,13.435c0.854,7.942-1.67,15.18-3.86,22.528
				c-0.668,2.264-1.67,4.416-2.486,6.644c-1.374,3.748-4.157,5.604-7.979,6.123c-4.231,0.595-8.202-0.371-12.173-1.744
				c-4.268-1.484-8.202-3.266-11.246-6.792c-1.225-1.447-2.895-2.523-4.342-3.822c-4.565-4.008-6.866-9.501-9.835-14.623
				c-2.375-4.082-4.899-8.091-7.72-11.876c-2.264-3.081-5.047-5.79-7.646-8.61c-0.779-0.854-1.67-1.707-2.709-2.227
				c-10.503-5.271-21.563-6.718-33.217-5.456c-9.464,1.039-17.146,5.01-23.418,12.099c-1.819,2.079-4.083,3.749-5.938,5.79
				c-0.742,0.779-0.816,2.152-1.336,3.154c-6.569,11.877-11.617,24.458-17.035,36.854c-4.083,9.315-8.351,18.668-14.474,26.944
				c-3.118,4.231-5.716,8.944-9.205,12.842c-6.049,6.643-12.507,12.952-20.895,16.812c-10.058,4.639-19.967,4.49-29.988-0.111
				c-6.086-2.821-11.765-6.161-16.738-10.652c-1.855-1.67-3.749-3.414-5.122-5.492c-4.417-6.755-9.093-13.436-10.021-21.897
				c-0.557-5.271-1.707-10.503-2.338-15.773c-0.223-1.855,0.186-3.785,0.482-5.642c0.594-3.6,0.965-7.273,2.042-10.726
				c1.521-4.75,3.674-9.315,5.418-13.992c1.484-3.896,2.523-7.941,4.268-11.653c2.561-5.493,5.344-10.837,8.351-16.07
				c6.086-10.503,12.619-20.709,18.482-31.324c5.048-9.093,6.384-18.965,4.045-29.171c-0.854-3.749-5.159-6.495-9.835-5.976
				c-3.155,0.334-6.347,1.41-9.167,2.858c-3.637,1.893-7.126,4.23-10.244,6.902c-3.043,2.636-5.604,5.864-8.202,8.981
				c-4.862,5.753-10.021,11.098-16.441,15.143c-6.198,3.86-12.693,6.681-20.227,7.015c-7.422,0.334-13.287-2.672-17.592-8.276
				c-4.305-5.567-6.049-12.247-5.047-19.299c0.445-3.118,1.744-6.235,3.118-9.13c3.34-6.978,7.46-13.473,12.73-19.188
				c5.53-5.938,11.171-11.765,16.961-17.48c1.744-1.744,4.045-2.932,6.235-4.156c4.677-2.599,9.501-4.899,14.066-7.571
				c2.152-1.262,3.934-3.118,5.827-4.788c4.788-4.305,2.821-12.878-2.449-15.402c-4.12-1.967-8.425-2.969-12.804-3.34
				c-3.786-0.297-7.72-0.111-11.394,0.668c-13.881,3.043-27.576,6.681-41.122,11.022c-6.31,2.005-12.767,3.675-19.299,4.788
				c-16.59,2.82-33.328,4.825-50.178,4.899c-5.975,0.037-11.951-0.668-17.963-1.04c-4.12-0.297-8.239-0.891-12.359-0.816
				c-6.569,0.111-12.544-1.744-18.334-4.49c-8.017-3.749-16.182-7.237-23.864-11.617c-8.685-4.936-16.887-10.726-23.345-18.668
				c-2.672-3.303-5.975-6.087-8.647-9.427c-3.897-4.899-6.235-10.651-8.61-16.404c-2.672-6.384-2.487-12.729-1.225-19.113
				c1.225-5.976,4.899-10.614,9.167-14.771c0.928-0.928,1.893-1.855,2.969-2.635c2.969-2.19,5.827-4.491,8.981-6.384
				c2.895-1.781,6.049-3.08,9.093-4.565c6.458-3.154,13.324-4.639,20.45-5.195c1.596-0.111,3.192-0.557,4.788-0.78
				c13.101-1.596,26.165-1.559,39.229,0.78c4.75,0.854,9.649,1.188,14.474,1.67c6.644,0.668,12.953,2.264,19.114,5.196
				c5.53,2.598,11.579,4.268,17.555,5.863c5.641,1.56,11.431,2.858,17.258,3.489c6.42,0.705,12.841,2.635,19.448,1.299
				c0.186-0.891,0.408-1.818,0.631-2.635c0.594,0,1.002-0.111,1.113,0.037c2.487,2.449,5.418,3.08,8.87,3.154
				c9.575,0.186,18.78-1.559,27.835-4.38c5.27-1.633,10.058-4.119,14.919-6.754c7.942-4.306,11.097-11.469,13.361-19.485
				c0.334-1.114,0.297-2.338,0.594-3.489c1.225-4.639,0.408-8.61-3.452-11.876c-3.526-3.006-7.312-4.379-12.025-4.565
				c-7.015-0.297-13.361,1.633-19.633,4.379c-0.408,0.148-0.854,0.482-1.262,0.408c-4.008-0.631-7.386,1.299-10.949,2.598
				c-5.233,1.93-10.392,1.559-15.402-0.965c-0.52-0.26-1.151-0.52-1.411-0.965c-1.893-3.489-4.083-6.829-5.418-10.54
				c-1.373-3.823,0.037-6.198,3.786-8.351c1.893-1.077,3.86-2.079,5.752-3.266c1.188-0.742,2.264-1.745,3.674-2.858
				c-5.084-4.342-10.354-7.089-16.404-8.239c-7.014-1.373-13.992-1.596-21.155-0.742c-7.534,0.928-15.216,0.928-22.862,1.113
				c-4.194,0.111-8.462,0-12.619-0.482c-6.495-0.705-12.21-3.229-16.516-8.462c-0.557-0.668-1.336-1.113-1.967-1.744
				c-2.227-2.19-3.377-4.639-2.969-7.942c0.631-5.196,4.342-9.91,9.278-11.283c4.194-1.15,8.351-1.373,12.693-0.482
				c3.415,0.742,7.015,1.225,10.503,0.037c0.78-0.26,1.522-0.668,2.487-1.113c-1.113-2.301-2.784-3.34-4.862-3.823
				c-5.604-1.225-11.208-2.635-16.85-3.563c-6.755-1.076-13.398-2.338-19.708-4.973c-11.839-4.974-21.155-12.841-25.831-25.126
				c-2.227-5.864-3.452-12.099-2.19-18.297c1.67-8.313,6.161-15.216,12.47-20.858c6.347-5.678,13.695-9.204,22.343-9.575
				c0.891,0,1.744-0.334,2.561-0.594c8.128-2.561,16.293-1.893,24.532-0.52c3.6,0.631,7.423,0.297,10.986,1.039
				c5.604,1.188,11.097,2.858,16.627,4.342c3.266,0.891,6.866,1.262,9.724,2.895c4.825,2.746,10.058,4.379,14.957,6.866
				c8.833,4.454,17.369,9.427,26.276,13.695c8.796,4.231,18.111,7.348,26.722,11.839c7.683,4.045,15.922,6.161,23.938,9.093
				c3.823,1.373,7.868,2.189,12.136,1.781c5.122-0.482,10.355-0.186,15.514-0.445c7.46-0.334,14.251-2.45,19.596-8.054
				c4.75-4.973,3.785-11.431-1.745-15.514c-7.015-5.196-15.143-7.46-23.307-9.167c-12.953-2.709-24.903-7.72-36-14.474
				c-11.58-7.089-20.821-16.961-27.687-28.763c-1.855-3.266-2.746-7.126-3.971-10.726c-0.631-1.967-1.002-4.008-1.596-5.975
				c-1.113-3.749-1.819-7.386-0.705-11.32c0.891-3.081,0.705-6.458,1.633-9.538c2.969-9.687,9.761-16.256,18.409-21.081
				c2.82-1.596,5.604-3.303,8.61-4.491c2.412-1.002,5.159-1.893,7.682-1.782c6.198,0.334,12.359,1.076,18.483,2.116
				c2.338,0.408,4.528,1.967,6.717,3.117c2.45,1.336,4.677,3.377,7.274,4.157c6.569,1.93,11.617,6.421,17.295,9.761
				c3.563,2.115,7.089,4.379,10.281,6.94c4.342,3.489,8.388,7.386,12.582,11.06c0.779,0.705,1.596,1.336,2.301,2.079
				c2.004,2.152,4.231,4.157,5.864,6.532c3.674,5.307,8.573,8.425,14.957,8.759c4.231,0.223,6.569-3.489,4.937-7.423
				c-0.706-1.781-1.596-3.562-2.821-4.973c-6.718-7.46-8.796-16.404-8.87-26.128c-0.037-3.377,0.668-6.161,2.598-9.056
				c3.266-4.973,7.979-6.755,13.436-7.312c10.763-1.188,18.037,4.788,24.829,12.099c6.086,6.532,9.353,14.623,13.621,22.157
				c5.567,9.761,10.577,19.893,18.074,28.281c5.159,5.752,10.8,11.283,18,14.846c6.086,3.043,12.358,5.53,18.742,7.719
				c5.196,1.745,10.541,2.895,16.07,2.635c5.641-0.26,10.28-2.561,13.88-6.94c1.039-1.262,1.967-2.672,3.229-3.637
				c2.301-1.708,3.415-4.12,4.194-6.644c3.526-11.394,3.711-23.048,1.707-34.664c-0.742-4.268-2.82-8.425-4.936-12.285
				c-4.899-8.907-10.132-17.667-15.365-26.388c-1.225-2.041-2.858-3.786-4.343-5.604c-3.229-4.045-6.829-7.831-9.724-12.099
				c-4.788-7.015-10.021-13.769-13.435-21.674c-1.633-3.786-3.749-7.386-5.604-11.06c-4.12-8.351-6.013-17.221-5.938-26.499
				c0.037-4.268,0.111-8.647,0.928-12.804c1.967-9.612,5.493-18.075,15.143-23.085C446.988,4.923,453,1.805,460.2,1.508
				c7.422-0.297,14.326,1.447,20.932,4.565c0.816,0.371,1.521,1.15,2.338,1.299c9.835,1.93,16.33,9.019,23.382,15.18
				c3.266,2.82,6.272,6.086,8.759,9.575c5.159,7.237,10.541,14.251,14.734,22.268c4.603,8.796,8.685,17.741,12.025,27.019
				c2.078,5.715,3.785,11.505,6.012,17.109c2.153,5.456,4.714,10.763,7.274,16.07c2.116,4.491,4.343,9.019,8.091,12.47
				c1.931,1.781,3.786,3.637,5.642,5.418c1.818,1.745,3.859,3.303,5.345,5.27c3.674,4.937,8.87,7.349,14.437,9.056
				c5.938,1.818,12.137,2.486,18.335,1.188c2.857-0.594,5.752-1.448,8.351-2.709c7.348-3.526,13.583-8.722,19.967-13.658
				c1.484-1.15,2.561-2.895,3.6-4.491c3.452-5.084,6.347-10.541,11.209-14.734c2.486-2.115,3.637-5.715,5.789-8.276
				c4.565-5.418,9.093-11.282,15.885-13.843c12.322-4.639,24.198-2.932,31.176,10.132c3.711,6.978,5.122,14.883,2.598,22.825
				c-1.113,3.489-2.746,6.866-4.676,9.983c-3.601,5.901-7.126,11.914-12.545,16.479c-1.67,1.411-3.043,3.303-4.193,5.159
				c-2.747,4.528-5.233,9.205-7.979,13.732c-1.596,2.561-1.188,4.899,0.074,7.386c0.668,1.262,0.928,2.709,1.596,3.934
				c1.447,2.709,3.006,5.381,4.603,7.979c3.934,6.384,10.28,8.165,17.109,8.239c10.651,0.148,20.857-2.152,29.913-8.017
				c7.052-4.565,13.918-9.464,20.784-14.289c3.711-2.598,7.237-5.567,11.022-8.054c6.421-4.231,12.953-8.313,19.559-12.21
				c8.573-5.122,17.853-7.683,27.947-6.717c4.082,0.408,8.091,0.816,12.099,2.078c6.755,2.079,12.025,6.272,16.775,11.171
				c6.978,7.2,10.801,15.922,12.359,25.868c0.668,4.342,2.189,8.536,2.078,13.027c-0.074,2.042-0.111,4.12-0.52,6.087
				c-3.08,15.328-9.167,28.948-21.489,39.266c-4.527,3.786-9.909,5.678-15.402,7.497c-5.455,1.818-11.171,3.081-16.292,5.567
				c-6.458,3.155-12.508,7.2-18.558,11.171c-1.559,1.002-2.857,2.746-2.523,5.196c0.408,3.155,0.186,6.421,0.779,9.575
				c0.297,1.336,1.744,2.969,3.043,3.526c5.567,2.301,11.283,3.711,17.519,3.6c7.088-0.111,13.917-1.039,20.301-4.008
				c4.008-1.855,7.646-4.491,11.542-6.569c9.315-5.011,17.295-11.765,25.534-18.223c5.976-4.713,12.805-8.462,20.339-10.577
				c1.559-0.446,3.117-0.965,4.527-1.708c3.972-2.041,8.017-2.746,12.396-1.818c7.089,1.484,14.066,2.895,20.115,7.534
				c6.866,5.27,8.091,14.697,5.456,20.561c-3.711,8.276-9.575,15.105-16.887,20.153c-5.419,3.749-11.876,5.901-17.926,8.647
				c-4.231,1.93-8.128,4.045-10.317,8.573c2.857,2.821,5.938,2.301,9.167,1.559c3.562-0.854,7.125-1.819,10.726-2.079
				c2.486-0.186,4.527,1.708,5.419,3.971c1.039,2.524,1.707,5.271,0.779,8.128c-0.891,2.635-1.373,5.382-4.603,6.458
				c-2.783,0.928-5.345,2.449-8.091,3.452c-4.824,1.781-9.761,3.34-12.989,7.831c-0.371,0.557-1.151,1.15-1.745,1.15
				c-2.783,0.074-4.193,2.152-5.604,3.934c-5.419,6.717-9.946,14.066-13.25,21.971c-1.855,4.417-3.043,9.353-3.414,14.14
				c-0.408,5.753,0.557,11.654,4.268,16.368c1.707,2.189,4.417,4.156,7.052,4.936c2.486,0.742,5.716,0.445,8.202-0.52
				c7.831-3.08,15.922-5.455,23.233-9.835c6.718-4.008,14.289-6.272,21.822-8.499c5.271-1.559,10.467-2.932,15.996-3.192
				c6.198-0.223,12.359-1.447,18.521-1.521c6.049-0.074,12.099,1.113,18.111,1.113c6.755,0.037,13.063,2.264,19.596,3.155
				c5.048,0.705,8.87,3.86,12.953,6.458c6.197,3.971,10.132,9.687,12.655,16.442C1014.79,412.988,1017.166,417.405,1018.02,422.081z
				"/>
			<path fill="#f8f7c9" d="M1016.201,334.641c0.482,4.899-1.337,8.944-4.603,12.47c-4.937,5.344-10.54,9.538-18.186,9.872
				c-2.152,0.074-4.343-0.631-6.532-0.816c-9.501-0.816-18.742-2.784-27.835-5.418c-7.794-2.301-15.773-2.153-26.759-2.858
				c-4.38-0.779-10.578,2.486-16.664,5.938c-1.263,0.705-2.302,1.893-3.229,3.006c-1.299,1.521-2.746,2.338-4.676,1.373
				c-1.856-0.928-3.378-4.417-2.45-6.086c0.742-1.373,1.893-2.524,3.081-3.526c1.781-1.521,3.711-2.932,5.715-4.157
				c3.526-2.153,7.126-4.194,10.727-6.198c4.75-2.709,9.575-5.308,14.325-7.979c7.2-4.083,14.326-8.388,22.269-10.912
				c2.486-0.779,5.122-1.076,7.72-1.596c6.755-1.411,13.473-3.043,20.301-4.157c5.085-0.817,9.873,0.854,14.438,3.043
				c1.596,0.743,3.043,1.819,4.677,2.413c5.084,1.818,7.423,5.381,7.2,10.763C1015.682,331.412,1016.053,333.045,1016.201,334.641z"
				/>
			<path fill="#f8f7c9" d="M831.04,37.249c4.454,5.716,5.382,12.248,4.565,19.262c-0.334,2.784-0.445,5.604-0.742,8.388
				c-1.15,11.023-7.646,19.336-14.178,27.576c-3.896,4.899-8.944,8.202-14.623,11.134c-8.202,4.194-16.924,6.903-25.163,10.875
				c-6.271,3.043-13.212,2.932-19.967,3.415c-3.117,0.223-6.421,1.336-9.501-0.78c-0.557-0.371-1.67,0.037-2.486,0.111
				c-2.265,0.297-2.265,0.297-4.751-1.484c-0.445-5.678,4.119-7.423,7.2-10.095c6.235-5.382,11.468-11.394,15.18-18.854
				c2.189-4.491,4.787-8.833,7.72-12.878c3.377-4.565,5.01-9.909,7.422-14.883c3.563-7.385,6.978-14.919,11.172-22.008
				c4.008-6.754,12.989-10.021,22.23-7.831c1.3,0.297,2.636,0.631,3.935,0.631C824.546,29.975,827.96,33.314,831.04,37.249z"/>
			<path fill="#f8f7c9" d="M783.535,701.25c0.705,12.247-3.378,22.899-12.693,31.25c-3.785,3.414-8.351,4.602-13.175,3.934
				c-2.153-0.297-4.491-1.596-6.124-3.117c-6.347-6.013-8.981-13.695-8.907-22.38c-0.779-5.196-2.004-10.392-2.228-15.625
				c-0.408-9.538-4.008-17.703-9.056-25.497c-1.002-1.596-1.818-3.488-0.297-5.382c1.263-1.596,2.784-2.004,4.677-1.225
				c0.482,0.186,1.373,0.223,1.67-0.074c2.078-2.041,3.823-0.705,5.976,0.037c3.748,1.299,7.646,2.339,11.579,2.784
				c6.421,0.705,11.58,4.008,15.885,8.165C778.45,681.431,782.904,690.71,783.535,701.25z"/>
			<path fill="#f8f7c9" d="M432.81,747.791c-0.111,0-0.26,0-0.371,0c0,0.892-0.037,1.782,0,2.673
				c0.594,8.425-3.897,14.251-9.983,19.15c-2.116,1.744-4.676,2.486-7.46,2.338c-5.122-0.26-10.095-1.299-14.066-4.602
				c-3.525-2.97-5.901-7.089-7.163-11.506c-3.415-12.284-3.155-24.644,0.557-36.854c2.523-8.202,4.713-16.441,7.497-24.532
				c1.373-3.971,3.786-7.608,5.715-11.394c0.557-1.039,1.039-2.153,1.744-3.081c0.52-0.779,1.411-1.93,2.004-1.855
				c1.002,0.111,2.375,0.854,2.747,1.707c1.818,4.269,4.639,8.091,5.678,12.693c0.408,1.855,0.223,3.859,0.779,5.641
				c2.524,8.647,5.27,17.222,7.831,25.869c1.336,4.49,2.598,9.056,3.526,13.657C432.513,741,432.513,744.414,432.81,747.791z"/>
			<path fill="#f8f7c9" d="M303.617,104.127c1.373,2.858,0.705,4.417-2.412,5.085c-1.893,0.445-3.637,0.297-5.493-0.78
				c-4.045-2.301-8.276-4.342-12.507-6.346c-5.752-2.709-11.951-3.934-18.223-4.75c-1.448-0.223-2.895-0.297-4.379-0.297
				c-6.903,0.037-16.219-6.384-17.963-14.438c-0.816-3.823,0.557-8.128,2.895-11.654c3.563-5.418,9.056-6.643,16.738-6.903
				c3.043,1.002,7.794,2.152,12.136,4.157c5.196,2.412,10.355,5.159,14.883,8.61c2.895,2.227,4.713,5.901,6.792,9.056
				c1.04,1.559,1.522,3.489,2.19,5.27c0.854,2.153,1.633,4.379,2.523,6.532C301.688,99.859,302.615,102.012,303.617,104.127z"/>
		</g>
		<g>
		</g>
	</g>
</g>
</svg>
